<?xml version="1.0" encoding="utf-8"?>
<!-- Generator: Adobe Illustrator 19.0.0, SVG Export Plug-In . SVG Version: 6.00 Build 0)  -->
<svg version="1.1" id="图层_1" xmlns="http://www.w3.org/2000/svg" xmlns:xlink="http://www.w3.org/1999/xlink" x="0px" y="0px"
	 viewBox="0 0 200 200" style="enable-background:new 0 0 200 200;" xml:space="preserve">
<style type="text/css">
	.st0{fill:#FFFFFF;stroke:#FFFFFF;stroke-miterlimit:10;}
</style>
<path id="XMLID_4_" class="st0" d="M173.7,131.3c0-5.3,2.7-9.9,6.8-12.5c-0.2,0-0.4,0-0.6,0H36.6c-7.2,0-13.1,5.9-13.1,13.1
	c0,7.2,5.9,13.1,13.1,13.1h143.2c0.7,0,1.4-0.1,2.1-0.2C177.1,142.3,173.7,137.2,173.7,131.3z"/>
<path id="XMLID_1_" class="st0" d="M164.3,102c0-5.3,2.3-9.9,5.9-12.5c-0.2,0-0.3,0-0.5,0H45.4c-6.2,0-11.3,5.9-11.3,13.1
	c0,7.2,5.1,13.1,11.3,13.1h124.2c0.6,0,1.2-0.1,1.9-0.2C167.2,113,164.3,107.9,164.3,102z"/>
<path id="XMLID_2_" class="st0" d="M150.7,72.5c0-5.3,1.8-9.9,4.6-12.5c-0.1,0-0.3,0-0.4,0H58.1c-4.9,0-8.8,5.9-8.8,13.1
	c0,7.2,4,13.1,8.8,13.1h96.8c0.5,0,1-0.1,1.4-0.2C153,83.4,150.7,78.4,150.7,72.5z"/>
</svg>
