<?xml version="1.0" encoding="utf-8"?>
<!-- Generator: Adobe Illustrator 19.0.0, SVG Export Plug-In . SVG Version: 6.00 Build 0)  -->
<svg version="1.1" id="图层_1" xmlns="http://www.w3.org/2000/svg" xmlns:xlink="http://www.w3.org/1999/xlink" x="0px" y="0px"
	 viewBox="0 0 200 200" style="enable-background:new 0 0 200 200;" xml:space="preserve">
<style type="text/css">
	.st0{fill:#FFFFFF;}
</style>
<g id="XMLID_4_">
	<polygon id="XMLID_2_" class="st0" points="95.9,54.7 79.3,74.8 54.4,48 62.7,41.3 	"/>
	<polygon id="XMLID_3_" class="st0" points="104.1,54.7 120.7,74.8 145.6,48 137.3,41.3 	"/>
</g>
<g id="XMLID_1_">
	<path id="XMLID_20_" class="st0" d="M99.3,68.8c-1.1,0-2.8,0.4-3.8,0.9l-7.2,3.6c-1,0.5-1.4,1.7-0.9,2.7l3.6,7.2
		c0.5,1,1.8,1.8,2.9,1.8h12.2c1.1,0,2.4-0.8,2.9-1.8l3.6-7.2c0.5-1,0.1-2.2-0.9-2.7l-7.2-3.6c-1-0.5-2.7-0.9-3.8-0.9H99.3z"/>
</g>
<g id="XMLID_5_">
	<path id="XMLID_16_" class="st0" d="M97.5,88c-1.1,0-2.1,0.9-2.1,2l-4.3,68c-0.1,1.1,0.3,2.8,0.8,3.8l7.2,14.4c0.5,1,1.3,1,1.8,0
		l7.2-14.4c0.5-1,0.8-2.7,0.8-3.8l-4.3-68c-0.1-1.1-1-2-2.1-2H97.5z"/>
</g>
</svg>
